<?xml version="1.0" standalone="no"?>
<!DOCTYPE svg PUBLIC "-//W3C//DTD SVG 20010904//EN"
 "http://www.w3.org/TR/2001/REC-SVG-20010904/DTD/svg10.dtd">
<svg version="1.0" xmlns="http://www.w3.org/2000/svg"
 width="96.000000pt" height="96.000000pt" viewBox="0 0 96.000000 96.000000"
 preserveAspectRatio="xMidYMid meet">
<metadata>
Created by potrace 1.11, written by Peter Selinger 2001-2013
</metadata>
<g transform="translate(0.000000,96.000000) scale(0.100000,-0.100000)"
fill="#000000" stroke="none">
<path d="M449 895 c-3 -2 -66 -25 -140 -50 -74 -26 -143 -50 -154 -55 -11 -5
-33 -14 -48 -20 l-29 -10 7 -73 c4 -39 9 -88 10 -107 2 -19 6 -44 11 -54 6
-15 4 -17 -7 -11 -11 7 -12 6 -2 -6 6 -8 14 -43 18 -79 5 -64 10 -107 19 -164
2 -16 12 -35 22 -42 11 -8 24 -18 30 -23 7 -5 15 -7 18 -4 3 4 6 1 6 -6 0 -7
5 -9 10 -6 6 3 10 1 10 -4 0 -6 6 -10 13 -9 6 2 11 -2 10 -9 -2 -7 4 -10 12
-7 8 4 17 -1 21 -10 3 -9 10 -13 15 -10 5 2 18 0 30 -7 17 -9 19 -13 8 -20 -9
-6 -4 -7 15 -3 24 6 28 4 23 -8 -4 -12 0 -14 15 -10 14 3 19 1 14 -6 -5 -8 -2
-10 8 -6 9 3 16 1 16 -5 0 -6 6 -10 13 -8 6 1 11 -3 10 -10 -2 -9 4 -10 22 -3
14 5 33 7 42 4 15 -5 15 -4 3 5 -12 8 -8 13 22 25 20 9 40 20 43 26 4 6 11 8
16 5 5 -4 9 -1 9 5 0 6 5 8 10 5 6 -3 10 -1 10 6 0 6 8 9 20 6 11 -3 18 0 17
7 -1 6 6 10 15 10 10 -1 16 3 15 9 -1 6 4 11 11 12 7 0 16 6 21 13 5 8 10 13
12 13 13 -2 49 13 49 20 0 5 7 9 15 9 9 0 15 10 16 23 0 12 2 31 4 42 3 11 7
43 10 70 16 134 23 190 25 190 1 0 3 16 4 35 2 19 6 67 10 105 l7 70 -198 68
c-188 64 -223 73 -234 62z"/>
</g>
</svg>
